<svg width="98" height="98" viewBox="0 0 98 98" fill="none" xmlns="http://www.w3.org/2000/svg">
<path d="M11 17L28 13.5H50.5H71.5L88 17V74L41.5 80L28 86.5L25.5 77.5L11 74V17Z" fill="#FAB439"/>
<path d="M49 32.6667V44.9167M49 44.9167V57.1667M49 44.9167H61.25M49 44.9167H36.75" stroke="#373A36" stroke-width="5" stroke-linecap="round"/>
<path d="M57.167 77.5833C72.5652 77.5833 80.2664 77.5833 85.048 72.7977C89.8337 68.0161 89.8337 60.3149 89.8337 44.9167C89.8337 29.5184 89.8337 21.8173 85.048 17.0357C80.2664 12.25 72.5652 12.25 57.167 12.25H40.8337C25.4354 12.25 17.7342 12.25 12.9527 17.0357C8.16699 21.8173 8.16699 29.5184 8.16699 44.9167C8.16699 60.3149 8.16699 68.0161 12.9527 72.7977C15.6191 75.4682 19.192 76.6483 24.5003 77.1668" stroke="#373A36" stroke-width="5" stroke-linecap="round" stroke-linejoin="round"/>
<path d="M57.1674 77.5833C52.1204 77.5833 46.5589 79.6249 41.4833 82.2587C33.3248 86.4931 29.2456 88.6123 27.2366 87.2608C25.2276 85.9133 25.6073 81.7278 26.3709 73.3611L26.5424 71.4583" stroke="#373A36" stroke-width="5" stroke-linecap="round"/>
</svg>
