<svg width="98" height="98" viewBox="0 0 98 98" fill="none" xmlns="http://www.w3.org/2000/svg">
<path d="M33 28L34 11L48 8L63.5 9.5L81 26L80 71L66 74L63.5 88.5H24L16 84L19 31L33 28Z" fill="#FAB439"/>
<path d="M55.1243 24.5001V40.8334H65.3327M59.9631 8.16675H40.8327C38.6667 8.16675 36.5895 9.02716 35.058 10.5587C33.5264 12.0903 32.666 14.1675 32.666 16.3334V65.3334C32.666 67.4994 33.5264 69.5766 35.058 71.1081C36.5895 72.6397 38.6667 73.5001 40.8327 73.5001H73.4994C75.6653 73.5001 77.7425 72.6397 79.2741 71.1081C80.8056 69.5766 81.666 67.4994 81.666 65.3334V29.5716C81.6659 28.4836 81.4484 27.4066 81.0262 26.4039C80.6041 25.4012 79.9859 24.4929 79.2079 23.7324L65.6716 10.4942C64.1459 9.00243 62.0969 8.16701 59.9631 8.16675V8.16675Z" stroke="#373A36" stroke-width="5" stroke-linecap="round" stroke-linejoin="round"/>
<path d="M65.333 73.5002V81.6668C65.333 83.8328 64.4726 85.91 62.941 87.4415C61.4095 88.9731 59.3323 89.8335 57.1663 89.8335H24.4997C22.3337 89.8335 20.2565 88.9731 18.725 87.4415C17.1934 85.91 16.333 83.8328 16.333 81.6668V36.7502C16.333 34.5842 17.1934 32.507 18.725 30.9755C20.2565 29.4439 22.3337 28.5835 24.4997 28.5835H32.6663" stroke="#373A36" stroke-width="5" stroke-linecap="round" stroke-linejoin="round"/>
</svg>
