<svg width="98" height="98" viewBox="0 0 98 98" fill="none" xmlns="http://www.w3.org/2000/svg">
<path d="M8.5 50.5L18 45.5H25V58.5V67.5V75V79.5L23 80.5H19.5L11.5 76L8.5 50.5Z" fill="#FAB439"/>
<path d="M74.5 46.5L81 45.5L88 49V58.5V67.5V71L87 74.5L85 77.5L81.5 79.5L75 80L74.5 46.5Z" fill="#FAB439"/>
<path d="M24.4993 81.6666V44.9166C16.3327 44.9166 8.16602 47.0073 8.16602 55.3903V65.3333C8.16602 69.6651 9.88684 73.8196 12.9499 76.8827C16.013 79.9458 20.1675 81.6666 24.4993 81.6666ZM24.4993 81.6666V40.8333C24.4993 34.3354 27.0806 28.1038 31.6752 23.5091C36.2699 18.9145 42.5015 16.3333 48.9994 16.3333C55.4972 16.3333 61.7288 18.9145 66.3235 23.5091C70.9181 28.1038 73.4994 34.3354 73.4994 40.8333V81.6666M73.4994 81.6666V44.9166C81.666 44.9166 89.8327 47.0073 89.8327 55.3903V65.3333C89.8327 69.6651 88.1119 73.8196 85.0488 76.8827C81.9857 79.9458 77.8312 81.6666 73.4994 81.6666Z" stroke="#373A36" stroke-width="5" stroke-linecap="round" stroke-linejoin="round"/>
</svg>
