<svg width="260" height="56" viewBox="0 0 260 56" fill="none" xmlns="http://www.w3.org/2000/svg">
<path d="M259.53 20.2237C256.599 15.2079 251.773 12.5929 245.146 12.5929C236.207 12.5929 229.271 18.3381 229.271 27.5968C229.271 36.8575 236.053 42.5967 245.146 42.5967C251.773 42.5967 256.599 39.9581 259.53 34.9424L254.542 32.0423C252.386 35.1469 249.559 36.8575 245.042 36.8575C239.493 36.8575 235.641 33.1335 235.641 27.5968C235.641 21.9598 239.339 18.3381 245.042 18.3381C249.559 18.3381 252.386 20.0428 254.542 23.1474L259.53 20.2237ZM200.78 27.5732C200.78 21.6727 203.915 18.1041 209.922 18.1041C215.934 18.1041 219.057 21.6727 219.057 27.5732C219.057 33.4717 215.926 37.0403 209.912 37.0403C203.901 37.0403 200.78 33.4678 200.78 27.5732ZM183.882 13.2437V41.8555H190.201V29.7439H194.512C195.49 37.9723 202.01 42.5731 209.922 42.5731C218.505 42.5731 225.437 37.1406 225.437 27.5732C225.437 18.0058 218.487 12.5929 209.906 12.5929C202.457 12.5929 196.241 16.6767 194.754 23.9731H190.181V13.2437H183.882ZM155.061 13.2437L151.264 33.7273C150.952 35.2806 149.976 35.9511 148.489 35.9511H145.407V41.8555H148.795C153.482 41.8555 156.603 39.6259 157.528 34.5571L160.406 19.0361H171.297V41.8555H177.714V13.2437H155.061ZM143.402 27.5732C143.402 18.5721 136.11 12.5693 127.466 12.5693C118.823 12.5693 111.532 18.5721 111.532 27.5732C111.532 36.5724 118.823 42.5731 127.466 42.5731C136.11 42.5731 143.386 36.5724 143.386 27.5732H143.402ZM117.975 27.5732C117.975 21.6727 122.139 18.1041 127.48 18.1041C132.822 18.1041 136.979 21.6727 136.979 27.5732C136.979 33.4717 132.818 37.0403 127.48 37.0403C122.141 37.0403 117.959 33.4678 117.959 27.5732H117.975ZM78.8359 13.2437V41.8555H85.2059V18.983H100.409V41.8555H106.828V13.2437" fill="#373A36"/>
<path fill-rule="evenodd" clip-rule="evenodd" d="M55.8962 23.9908L35.6216 27.0404C35.5076 27.0502 35.3937 27.0384 35.2896 26.9971C35.1836 26.9598 35.0853 26.8968 35.0087 26.8202C34.9282 26.7356 34.8673 26.6373 34.83 26.5311C34.7966 26.4269 34.7829 26.3089 34.8005 26.1988L35.3898 15.377C35.4644 14.0322 36.2324 13.344 37.2715 13.1828L50.2471 11.2363C51.2862 11.075 52.2231 11.5155 52.6847 12.7758L56.4461 22.9645C56.4933 23.0707 56.5129 23.1827 56.511 23.2928C56.507 23.4069 56.4795 23.515 56.4304 23.6173C56.3754 23.7156 56.3047 23.804 56.2144 23.8729C56.124 23.9397 56.0199 23.9869 55.9099 24.0105L55.8962 23.9908ZM41.1331 52.7324L31.8464 34.4273C31.7992 34.3231 31.7776 34.213 31.7796 34.1009C31.7835 33.9869 31.811 33.8728 31.864 33.7745C31.9151 33.6762 31.9878 33.5838 32.0781 33.5169C32.1685 33.4501 32.2726 33.4068 32.3826 33.3832L42.8459 30.5244C44.1423 30.1744 45.038 30.6817 45.5153 31.6215L51.4551 43.3399C51.9245 44.2798 51.8165 45.2983 50.7637 46.1378L42.3058 52.9093C42.2233 52.9939 42.1251 53.0509 42.0151 53.0843C41.9051 53.1217 41.7892 53.1276 41.6772 53.1118C41.5613 53.0941 41.4553 53.0509 41.361 52.988C41.2667 52.9191 41.1862 52.8326 41.1331 52.7324ZM8.9849 47.5004L23.5829 33.0903C23.6674 33.0136 23.7656 32.9605 23.8756 32.9271C23.9817 32.8937 24.0975 32.8858 24.2075 32.9074C24.3175 32.9232 24.4256 32.9703 24.5159 33.0333C24.6102 33.1021 24.6829 33.1847 24.7398 33.2849L30.6344 42.4001C31.3632 43.5307 31.153 44.5373 30.4027 45.2747L21.0589 54.5039C20.6936 54.8893 20.1947 55.1272 19.6584 55.1625C19.1242 55.1979 18.5977 55.0308 18.1833 54.6946L9.16168 48.6643C9.0615 48.6073 8.97508 48.5306 8.91026 48.4402C8.84348 48.3498 8.80026 48.2455 8.77866 48.1315C8.75902 48.0175 8.76687 47.9074 8.80026 47.7953C8.8258 47.6891 8.88276 47.5849 8.96133 47.5004H8.9849ZM4.08616 15.4242L22.3003 24.8324C22.3965 24.8894 22.481 24.9661 22.5438 25.0585C22.6087 25.1548 22.6519 25.259 22.6676 25.3731C22.6853 25.4832 22.6755 25.5972 22.6421 25.7093C22.6087 25.8135 22.5517 25.9137 22.4731 25.9983L15.6514 34.4332C15.3529 34.8834 14.8972 35.2059 14.3747 35.3298C13.8522 35.4536 13.2983 35.3769 12.8328 35.1076L1.19287 29.0675C0.252017 28.5976 -0.244929 27.6853 0.120414 26.3896L3.04316 15.9334C3.07066 15.8233 3.1178 15.7231 3.18851 15.6385C3.25922 15.5481 3.34565 15.4812 3.44582 15.4301C3.546 15.3829 3.65403 15.3574 3.76403 15.3574C3.87599 15.3574 3.98598 15.381 4.08616 15.4242ZM33.1447 0.839133L29.778 21.0711C29.7545 21.1792 29.7073 21.2834 29.6386 21.3739C29.5679 21.4604 29.4814 21.5351 29.3793 21.5842C29.2791 21.6354 29.1652 21.6609 29.0552 21.6648C28.9413 21.6648 28.8293 21.6432 28.7292 21.5901L18.5781 17.703C17.3289 17.2292 16.9046 16.2893 17.0794 15.2355L19.2361 2.27247C19.407 1.2363 20.1043 0.48129 21.4478 0.430169L32.2863 0.00744143C32.4003 -0.00828796 32.5142 0.00154278 32.6281 0.0310355C32.7361 0.0683924 32.8402 0.129344 32.9208 0.209957C33.0033 0.294503 33.0681 0.390845 33.1074 0.497019C33.1447 0.605158 33.1584 0.723129 33.1447 0.839133Z" fill="white"/>
</svg>
