<svg width="41" height="40" viewBox="0 0 41 40" fill="none" xmlns="http://www.w3.org/2000/svg">
<path fill-rule="evenodd" clip-rule="evenodd" d="M39.9873 17.4479L25.4831 19.6657C25.4016 19.6729 25.3201 19.6643 25.2456 19.6343C25.1698 19.6071 25.0995 19.5613 25.0447 19.5056C24.9871 19.4441 24.9435 19.3726 24.9168 19.2954C24.893 19.2196 24.8831 19.1338 24.8958 19.0537L25.3173 11.1833C25.3707 10.2052 25.9201 9.70473 26.6635 9.58747L35.946 8.17183C36.6893 8.05457 37.3596 8.37488 37.6898 9.29147L40.3807 16.7014C40.4144 16.7787 40.4285 16.8602 40.4271 16.9402C40.4243 17.0232 40.4046 17.1018 40.3695 17.1762C40.3301 17.2477 40.2795 17.312 40.2149 17.3621C40.1502 17.4107 40.0758 17.445 39.9971 17.4622L39.9873 17.4479ZM29.426 38.3508L22.7824 25.038C22.7487 24.9622 22.7332 24.8822 22.7346 24.8007C22.7374 24.7177 22.7571 24.6348 22.795 24.5633C22.8316 24.4918 22.8836 24.4246 22.9482 24.376C23.0128 24.3273 23.0873 24.2959 23.166 24.2787L30.6513 22.1996C31.5787 21.9451 32.2195 22.314 32.5609 22.9975L36.8102 31.52C37.146 32.2035 37.0687 32.9442 36.3156 33.5548L30.2649 38.4795C30.2059 38.541 30.1356 38.5825 30.0569 38.6068C29.9782 38.6339 29.8953 38.6382 29.8153 38.6268C29.7323 38.6139 29.6565 38.5825 29.589 38.5367C29.5216 38.4866 29.464 38.4237 29.426 38.3508ZM6.42766 34.5457L16.8709 24.0657C16.9313 24.0099 17.0015 23.9713 17.0802 23.947C17.1561 23.9227 17.239 23.9169 17.3177 23.9327C17.3964 23.9441 17.4737 23.9784 17.5383 24.0242C17.6058 24.0742 17.6577 24.1343 17.6985 24.2072L21.9154 30.8364C22.4367 31.6587 22.2864 32.3908 21.7496 32.927L15.0652 39.6392C14.8039 39.9195 14.4469 40.0925 14.0633 40.1182C13.6811 40.144 13.3045 40.0224 13.0081 39.7779L6.55412 35.3923C6.48246 35.3508 6.42063 35.295 6.37426 35.2292C6.32649 35.1635 6.29557 35.0877 6.28012 35.0047C6.26607 34.9218 6.27169 34.8417 6.29557 34.7602C6.31384 34.683 6.35459 34.6072 6.4108 34.5457H6.42766ZM2.92317 11.2176L15.9533 18.0599C16.0221 18.1014 16.0826 18.1571 16.1275 18.2243C16.1739 18.2944 16.2048 18.3702 16.216 18.4531C16.2287 18.5332 16.2217 18.6161 16.1978 18.6976C16.1739 18.7734 16.1331 18.8464 16.0769 18.9079L11.1968 25.0423C10.9832 25.3698 10.6572 25.6043 10.2834 25.6944C9.90966 25.7845 9.5134 25.7287 9.18038 25.5328L0.853363 21.14C0.180289 20.7982 -0.175218 20.1347 0.0861425 19.1924L2.17703 11.588C2.1967 11.5079 2.23043 11.435 2.28101 11.3735C2.3316 11.3077 2.39343 11.2591 2.46509 11.2219C2.53675 11.1876 2.61404 11.169 2.69273 11.169C2.77282 11.169 2.85151 11.1861 2.92317 11.2176ZM23.7112 0.610278L21.3027 15.3244C21.2859 15.4031 21.2522 15.4788 21.203 15.5446C21.1524 15.6075 21.0906 15.6619 21.0175 15.6976C20.9458 15.7348 20.8643 15.7534 20.7856 15.7563C20.7041 15.7563 20.6241 15.7405 20.5524 15.7019L13.2905 12.8749C12.3968 12.5303 12.0933 11.8468 12.2183 11.0803L13.7612 1.65271C13.8835 0.899127 14.3823 0.350029 15.3434 0.31285L23.0971 0.00541195C23.1786 -0.00602761 23.2601 0.00112202 23.3416 0.0225713C23.4189 0.04974 23.4934 0.0940686 23.551 0.152696C23.61 0.214184 23.6564 0.284251 23.6845 0.361468C23.7112 0.440115 23.721 0.525912 23.7112 0.610278Z" fill="#FAB439"/>
</svg>
