<svg width="22" height="18" viewBox="0 0 22 18" fill="none" xmlns="http://www.w3.org/2000/svg">
<path d="M5.49967 16.3334V7.16675C5.49967 5.70806 6.07914 4.30911 7.11059 3.27766C8.14204 2.24621 9.54098 1.66675 10.9997 1.66675C12.4584 1.66675 13.8573 2.24621 14.8888 3.27766C15.9202 4.30911 16.4997 5.70806 16.4997 7.16675V16.3334M1.83301 10.4347C1.83301 8.55275 3.66634 8.08341 5.49967 8.08341V16.3334C4.52721 16.3334 3.59458 15.9471 2.90695 15.2595C2.21932 14.5718 1.83301 13.6392 1.83301 12.6667V10.4347ZM20.1663 10.4347C20.1663 8.55275 18.333 8.08341 16.4997 8.08341V16.3334C17.4721 16.3334 18.4048 15.9471 19.0924 15.2595C19.78 14.5718 20.1663 13.6392 20.1663 12.6667V10.4347Z" stroke="#373A36" stroke-width="2" stroke-linecap="round" stroke-linejoin="round"/>
</svg>
