<svg width="20" height="20" viewBox="0 0 20 20" fill="none" xmlns="http://www.w3.org/2000/svg">
<path d="M18.25 16.4165V10.2445C18.25 9.7472 18.1488 9.25506 17.9526 8.79806C17.7564 8.34106 17.4693 7.92874 17.1087 7.5862L11.2632 2.03395C10.9224 1.71027 10.4704 1.52979 10.0005 1.52979C9.53049 1.52979 9.07847 1.71027 8.73775 2.03395L2.89125 7.5862C2.53068 7.92874 2.24357 8.34106 2.04737 8.79806C1.85117 9.25506 1.75 9.7472 1.75 10.2445V16.4165C1.75 16.9027 1.94315 17.369 2.28697 17.7128C2.63079 18.0566 3.0971 18.2498 3.58333 18.2498H16.4167C16.9029 18.2498 17.3692 18.0566 17.713 17.7128C18.0568 17.369 18.25 16.9027 18.25 16.4165Z" stroke="#373A36" stroke-width="2" stroke-linecap="round" stroke-linejoin="round"/>
</svg>
