<svg width="20" height="20" viewBox="0 0 20 20" fill="none" xmlns="http://www.w3.org/2000/svg">
<path d="M18.25 16.4167V10.2448C18.25 9.74744 18.1488 9.25531 17.9526 8.7983C17.7564 8.3413 17.4693 7.92899 17.1087 7.58645L11.2632 2.0342C10.9224 1.71051 10.4704 1.53003 10.0005 1.53003C9.53049 1.53003 9.07847 1.71051 8.73775 2.0342L2.89125 7.58645C2.53068 7.92899 2.24357 8.3413 2.04737 8.7983C1.85117 9.25531 1.75 9.74744 1.75 10.2448V16.4167C1.75 16.9029 1.94315 17.3692 2.28697 17.7131C2.63079 18.0569 3.0971 18.25 3.58333 18.25H16.4167C16.9029 18.25 17.3692 18.0569 17.713 17.7131C18.0568 17.3692 18.25 16.9029 18.25 16.4167Z" stroke="white" stroke-width="2" stroke-linecap="round" stroke-linejoin="round"/>
</svg>
