<svg width="22" height="18" viewBox="0 0 22 18" fill="none" xmlns="http://www.w3.org/2000/svg">
<path d="M5.50065 16.3332V7.1665C5.50065 5.70781 6.08011 4.30887 7.11156 3.27742C8.14301 2.24597 9.54196 1.6665 11.0007 1.6665C12.4593 1.6665 13.8583 2.24597 14.8897 3.27742C15.9212 4.30887 16.5007 5.70781 16.5007 7.1665V16.3332M1.83398 10.4344C1.83398 8.5525 3.66732 8.08317 5.50065 8.08317V16.3332C4.52819 16.3332 3.59556 15.9469 2.90793 15.2592C2.22029 14.5716 1.83398 13.639 1.83398 12.6665V10.4344ZM20.1673 10.4344C20.1673 8.5525 18.334 8.08317 16.5007 8.08317V16.3332C17.4731 16.3332 18.4057 15.9469 19.0934 15.2592C19.781 14.5716 20.1673 13.639 20.1673 12.6665V10.4344Z" stroke="#373A36" stroke-width="2" stroke-linecap="round" stroke-linejoin="round"/>
</svg>
