<svg width="22" height="22" viewBox="0 0 22 22" fill="none" xmlns="http://www.w3.org/2000/svg">
<path d="M2.75 4.58325H6.41667M19.25 4.58325H10.0833M2.75 10.9999H13.75M19.25 10.9999H17.4167M2.75 17.4166H4.58333M19.25 17.4166H8.25" stroke="#373A36" stroke-width="2" stroke-linecap="round"/>
<path d="M8.25033 6.41667C9.26285 6.41667 10.0837 5.59586 10.0837 4.58333C10.0837 3.57081 9.26285 2.75 8.25033 2.75C7.2378 2.75 6.41699 3.57081 6.41699 4.58333C6.41699 5.59586 7.2378 6.41667 8.25033 6.41667Z" stroke="#373A36" stroke-width="2" stroke-linecap="round"/>
<path d="M15.5833 12.8334C16.5959 12.8334 17.4167 12.0126 17.4167 11.0001C17.4167 9.98756 16.5959 9.16675 15.5833 9.16675C14.5708 9.16675 13.75 9.98756 13.75 11.0001C13.75 12.0126 14.5708 12.8334 15.5833 12.8334Z" stroke="#373A36" stroke-width="2" stroke-linecap="round"/>
<path d="M6.41634 19.2499C7.42886 19.2499 8.24967 18.4291 8.24967 17.4166C8.24967 16.4041 7.42886 15.5833 6.41634 15.5833C5.40382 15.5833 4.58301 16.4041 4.58301 17.4166C4.58301 18.4291 5.40382 19.2499 6.41634 19.2499Z" stroke="#373A36" stroke-width="2" stroke-linecap="round"/>
</svg>
