<svg width="22" height="20" viewBox="0 0 22 20" fill="none" xmlns="http://www.w3.org/2000/svg">
<path d="M11 6.33301V9.08301M11 9.08301V11.833M11 9.08301H13.75M11 9.08301H8.25" stroke="white" stroke-width="2" stroke-linecap="round"/>
<path d="M12.832 16.4167C16.2888 16.4167 18.0176 16.4167 19.091 15.3423C20.1654 14.2689 20.1654 12.5401 20.1654 9.08333C20.1654 5.62658 20.1654 3.89775 19.091 2.82433C18.0176 1.75 16.2888 1.75 12.832 1.75H9.16536C5.70861 1.75 3.97978 1.75 2.90636 2.82433C1.83203 3.89775 1.83203 5.62658 1.83203 9.08333C1.83203 12.5401 1.83203 14.2689 2.90636 15.3423C3.50495 15.9418 4.30703 16.2068 5.4987 16.3232" stroke="white" stroke-width="2" stroke-linecap="round" stroke-linejoin="round"/>
<path d="M12.8328 16.4165C11.6998 16.4165 10.4513 16.8748 9.31191 17.4661C7.48041 18.4167 6.56465 18.8924 6.11365 18.589C5.66265 18.2865 5.74791 17.3469 5.91932 15.4687L5.95782 15.0415" stroke="white" stroke-width="2" stroke-linecap="round"/>
</svg>
