<svg width="22" height="22" viewBox="0 0 22 22" fill="none" xmlns="http://www.w3.org/2000/svg">
<path d="M11 7.33325V10.0833M11 10.0833V12.8333M11 10.0833H13.75M11 10.0833H8.25" stroke="#373A36" stroke-width="2" stroke-linecap="round"/>
<path d="M12.833 17.4167C16.2898 17.4167 18.0186 17.4167 19.092 16.3423C20.1663 15.2689 20.1663 13.5401 20.1663 10.0833C20.1663 6.62658 20.1663 4.89775 19.092 3.82433C18.0186 2.75 16.2898 2.75 12.833 2.75H9.16634C5.70959 2.75 3.98076 2.75 2.90734 3.82433C1.83301 4.89775 1.83301 6.62658 1.83301 10.0833C1.83301 13.5401 1.83301 15.2689 2.90734 16.3423C3.50592 16.9418 4.30801 17.2068 5.49967 17.3232" stroke="#373A36" stroke-width="2" stroke-linecap="round" stroke-linejoin="round"/>
<path d="M12.8328 17.4167C11.6998 17.4167 10.4513 17.8751 9.31191 18.4663C7.48041 19.4169 6.56465 19.8927 6.11365 19.5892C5.66265 19.2867 5.74791 18.3472 5.91932 16.4689L5.95782 16.0417" stroke="#373A36" stroke-width="2" stroke-linecap="round"/>
</svg>
