<svg width="18" height="22" viewBox="0 0 18 22" fill="none" xmlns="http://www.w3.org/2000/svg">
<path d="M10.3757 5.49992V9.16659H12.6673M11.4619 1.83325H7.16732C6.68109 1.83325 6.21477 2.02641 5.87096 2.37022C5.52714 2.71404 5.33398 3.18036 5.33398 3.66659V14.6666C5.33398 15.1528 5.52714 15.6191 5.87096 15.9629C6.21477 16.3068 6.68109 16.4999 7.16732 16.4999H14.5007C14.9869 16.4999 15.4532 16.3068 15.797 15.9629C16.1408 15.6191 16.334 15.1528 16.334 14.6666V6.63842C16.334 6.39418 16.2851 6.15241 16.1904 5.92731C16.0956 5.70221 15.9568 5.49831 15.7822 5.32759L12.7434 2.35575C12.4009 2.02085 11.9409 1.83331 11.4619 1.83325V1.83325Z" stroke="#373A36" stroke-width="2" stroke-linecap="round" stroke-linejoin="round"/>
<path d="M12.667 16.4998V18.3332C12.667 18.8194 12.4738 19.2857 12.13 19.6295C11.7862 19.9733 11.3199 20.1665 10.8337 20.1665H3.50033C3.0141 20.1665 2.54778 19.9733 2.20396 19.6295C1.86015 19.2857 1.66699 18.8194 1.66699 18.3332V8.24984C1.66699 7.76361 1.86015 7.29729 2.20396 6.95347C2.54778 6.60966 3.0141 6.4165 3.50033 6.4165H5.33366" stroke="#373A36" stroke-width="2" stroke-linecap="round" stroke-linejoin="round"/>
</svg>
